<?xml version="1.0" encoding="utf-8"?>
<!-- Generator: Adobe Illustrator 17.0.2, SVG Export Plug-In . SVG Version: 6.00 Build 0)  -->
<!DOCTYPE svg PUBLIC "-//W3C//DTD SVG 1.1//EN" "http://www.w3.org/Graphics/SVG/1.1/DTD/svg11.dtd">
<svg version="1.1" id="Layer_1" xmlns="http://www.w3.org/2000/svg" xmlns:xlink="http://www.w3.org/1999/xlink" x="0px" y="0px"
	 width="600px" height="500px" viewBox="0 0 600 500" enable-background="new 0 0 600 500" xml:space="preserve">
<rect fill="#5FCF80" width="600" height="500"/>
<text transform="matrix(1 0 0 1 479.4805 319.4219)" fill="#FFFFFF" font-family="'Rubrik-SemiBold'" font-size="24.3869">™</text>
<g>
	<path fill="#FFFFFF" d="M138.062,344.272c-9.274,0-13.463-6.358-13.463-14.734v-29.543c0-2.917,2.169-5.235,5.011-5.235
		c2.767,0,5.011,2.318,5.011,5.235v5.086h9.349c2.468,0,4.637,1.869,4.637,4.487c0,2.468-2.169,4.338-4.637,4.338h-9.349v15.407
		c0,3.59,1.571,5.534,4.862,5.534c1.645,0,3.29-0.448,4.637-0.823c3.814-0.898,6.208,1.496,6.208,4.263
		c0,1.645-0.823,3.366-3.141,4.412C144.569,343.897,140.904,344.272,138.062,344.272z"/>
	<path fill="#FFFFFF" d="M181.587,308.895c0,2.018-1.571,4.712-4.712,4.712c-1.72,0-3.366-0.749-5.609-0.674
		c-2.468,0.075-3.889,1.421-3.889,4.862v21.166c0,2.842-2.169,5.086-5.011,5.086c-2.767,0-5.011-2.244-5.011-5.086v-23.036
		c0-7.779,4.563-12.79,13.163-12.79c2.468,0,4.936,0.224,6.432,0.598C180.017,304.557,181.587,306.426,181.587,308.895z"/>
	<path fill="#FFFFFF" d="M220.477,322.132c0,2.917-1.496,5.012-5.161,5.012h-19.894v0.748c0,4.712,3.59,7.255,8.601,7.255
		c2.692,0,5.46-0.672,8.003-1.645c3.964-1.496,6.582,1.197,6.582,3.964c0,1.421-0.523,2.991-2.543,4.188
		c-2.767,1.645-7.554,2.618-12.34,2.618c-10.321,0-17.277-6.507-18.025-15.856c-0.225-2.916-0.15-7.03,0-9.349
		c0.897-9.722,7.853-15.93,17.65-15.93c10.172,0,17.128,6.806,17.128,17.351V322.132z M210.006,320.338
		c0.523,0,0.823-0.299,0.823-0.898c0.225-4.563-2.617-7.629-7.479-7.629c-5.31,0-7.928,3.366-7.928,8.527H210.006z"/>
	<path fill="#FFFFFF" d="M262.731,322.132c0,2.917-1.496,5.012-5.161,5.012h-19.894v0.748c0,4.712,3.59,7.255,8.601,7.255
		c2.692,0,5.46-0.672,8.003-1.645c3.964-1.496,6.582,1.197,6.582,3.964c0,1.421-0.523,2.991-2.543,4.188
		c-2.767,1.645-7.554,2.618-12.34,2.618c-10.321,0-17.277-6.507-18.025-15.856c-0.225-2.916-0.15-7.03,0-9.349
		c0.897-9.722,7.853-15.93,17.65-15.93c10.172,0,17.128,6.806,17.128,17.351V322.132z M252.26,320.338
		c0.523,0,0.823-0.299,0.823-0.898c0.225-4.563-2.617-7.629-7.479-7.629c-5.31,0-7.928,3.366-7.928,8.527H252.26z"/>
	<path fill="#FFFFFF" d="M281.35,306.053c1.645-1.496,5.46-2.917,9.424-2.917c9.498,0,15.107,5.684,15.107,16.38v19.222
		c0,2.991-2.093,5.31-5.086,5.31c-2.767,0-4.936-2.319-4.936-5.31v-18.698c0-4.563-2.618-7.105-6.731-7.105
		c-3.141,0-6.208,1.421-7.779,3.141v22.811c0,2.842-2.094,5.161-4.936,5.161c-2.768,0-5.086-2.319-5.086-5.161v-43.754
		c0-2.916,2.169-5.16,5.011-5.16c2.767,0,5.011,2.244,5.011,5.16V306.053z"/>
	<path fill="#FFFFFF" d="M332.579,344.272c-9.797,0-17.202-6.283-17.95-15.183c-0.224-2.992-0.224-7.704,0-10.695
		c0.747-8.975,8.152-15.258,17.95-15.258c9.873,0,17.127,6.283,17.876,15.258c0.224,2.991,0.224,7.629,0,10.62
		C349.706,337.989,342.452,344.272,332.579,344.272z M340.507,319.964c-0.224-4.263-3.217-7.255-7.928-7.255
		c-4.712,0-7.629,2.991-8.002,7.255c-0.15,2.02-0.15,5.535,0,7.48c0.373,4.262,3.29,7.255,8.002,7.255
		c4.712,0,7.629-2.992,7.928-7.255C340.656,325.499,340.656,321.983,340.507,319.964z"/>
	<path fill="#FFFFFF" d="M359.202,308.67c0-2.991,1.794-5.31,4.936-5.31c2.842,0,5.086,2.319,5.086,5.31v19.073
		c0,4.487,2.917,6.955,7.181,6.955c3.29,0,5.758-0.973,7.33-1.944v-24.233c0-2.842,2.093-5.161,5.011-5.161
		c2.767,0,5.011,2.319,5.011,5.161v27.972c0,1.719-0.448,2.692-1.795,3.515c-2.318,1.645-7.778,4.263-15.781,4.263
		c-10.769,0-16.977-5.833-16.977-16.38V308.67z"/>
	<path fill="#FFFFFF" d="M433.242,331.258c0,8.376-6.956,13.014-15.632,13.014c-7.03,0-11.518-2.02-14.285-4.338
		c-1.795-1.495-2.319-4.337-0.898-6.208c1.496-2.02,4.039-2.468,6.507-0.897c2.319,1.495,5.385,2.468,8.9,2.468
		c3.89,0,5.684-1.421,5.684-3.441c0-1.645-1.196-2.767-4.337-3.516c-2.693-0.597-2.618-0.523-5.535-1.271
		c-6.133-1.57-10.919-5.011-10.919-11.443c0-8.078,6.507-12.491,15.258-12.491c4.712,0,9.573,1.197,12.191,3.366
		c2.169,1.795,2.018,4.862,0.448,6.656c-1.496,1.646-4.039,1.871-6.507,0.598c-1.944-0.972-4.563-1.645-6.507-1.645
		c-3.739,0-5.31,1.421-5.31,3.217c0,1.57,1.122,2.617,4.487,3.366l5.31,1.196C429.577,321.684,433.242,325.349,433.242,331.258z"/>
	<path fill="#FFFFFF" d="M474.748,322.132c0,2.917-1.495,5.012-5.16,5.012h-19.895v0.748c0,4.712,3.591,7.255,8.602,7.255
		c2.692,0,5.459-0.672,8.002-1.645c3.964-1.496,6.582,1.197,6.582,3.964c0,1.421-0.523,2.991-2.543,4.188
		c-2.767,1.645-7.554,2.618-12.34,2.618c-10.322,0-17.277-6.507-18.025-15.856c-0.224-2.916-0.15-7.03,0-9.349
		c0.898-9.722,7.853-15.93,17.65-15.93c10.172,0,17.127,6.806,17.127,17.351V322.132z M464.279,320.338
		c0.523,0,0.823-0.299,0.823-0.898c0.224-4.563-2.618-7.629-7.48-7.629c-5.31,0-7.928,3.366-7.928,8.527H464.279z"/>
</g>
<g>
	<g>
		<path fill="#53AD6F" d="M494,438.511c0,2.933-2.378,5.31-5.31,5.31H111.31c-2.933,0-5.31-2.378-5.31-5.31v-58.769
			c0-2.933,2.378-5.31,5.31-5.31H488.69c2.933,0,5.31,2.378,5.31,5.31V438.511z"/>
	</g>
	<g>
		<path fill="#5DBA7A" d="M494,434.262c0,2.933-2.378,5.31-5.31,5.31H111.31c-2.933,0-5.31-2.378-5.31-5.31v-58.769
			c0-2.933,2.378-5.31,5.31-5.31H488.69c2.933,0,5.31,2.378,5.31,5.31V434.262z"/>
	</g>
	<g>
		<path fill="#FFFFFF" d="M136.191,413.408c-0.428-0.307-0.734-0.826-0.734-1.438c0-0.979,0.795-1.743,1.773-1.743
			c0.52,0,0.856,0.153,1.101,0.337c1.773,1.406,3.669,2.201,5.993,2.201c2.324,0,3.792-1.101,3.792-2.69v-0.062
			c0-1.529-0.856-2.354-4.832-3.271c-4.556-1.102-7.125-2.447-7.125-6.392v-0.061c0-3.67,3.058-6.208,7.309-6.208
			c2.691,0,4.862,0.703,6.789,1.987c0.428,0.245,0.825,0.765,0.825,1.499c0,0.979-0.795,1.743-1.773,1.743
			c-0.367,0-0.673-0.092-0.979-0.275c-1.651-1.07-3.241-1.621-4.923-1.621c-2.202,0-3.486,1.132-3.486,2.538v0.062
			c0,1.651,0.979,2.385,5.107,3.363c4.525,1.101,6.85,2.722,6.85,6.269v0.062c0,4.006-3.15,6.391-7.645,6.391
			C141.329,416.099,138.577,415.182,136.191,413.408z"/>
		<path fill="#FFFFFF" d="M156.495,411.328v-8.5h-0.611c-0.887,0-1.59-0.704-1.59-1.591s0.703-1.59,1.59-1.59h0.611v-2.752
			c0-1.009,0.826-1.835,1.865-1.835c1.009,0,1.835,0.826,1.835,1.835v2.752h2.905c0.887,0,1.621,0.703,1.621,1.59
			s-0.734,1.591-1.621,1.591h-2.905v7.919c0,1.438,0.734,2.019,1.987,2.019c0.428,0,0.795-0.092,0.917-0.092
			c0.826,0,1.56,0.673,1.56,1.529c0,0.673-0.458,1.223-0.979,1.437c-0.795,0.275-1.56,0.429-2.538,0.429
			C158.421,416.068,156.495,414.876,156.495,411.328z"/>
		<path fill="#FFFFFF" d="M167.227,411.145v-0.061c0-3.486,2.721-5.198,6.666-5.198c1.804,0,3.088,0.275,4.342,0.673v-0.397
			c0-2.294-1.407-3.517-4.006-3.517c-1.407,0-2.569,0.244-3.578,0.642c-0.214,0.062-0.397,0.092-0.581,0.092
			c-0.856,0-1.56-0.673-1.56-1.528c0-0.673,0.458-1.254,1.009-1.469c1.529-0.58,3.089-0.947,5.199-0.947
			c2.416,0,4.22,0.642,5.351,1.804c1.192,1.162,1.743,2.875,1.743,4.984v7.95c0,1.01-0.795,1.774-1.804,1.774
			c-1.07,0-1.804-0.734-1.804-1.56v-0.612c-1.101,1.315-2.783,2.354-5.26,2.354C169.917,416.129,167.227,414.387,167.227,411.145z
			 M178.296,409.983v-1.102c-0.948-0.366-2.202-0.642-3.669-0.642c-2.385,0-3.792,1.009-3.792,2.69v0.062
			c0,1.56,1.376,2.446,3.15,2.446C176.431,413.438,178.296,412.032,178.296,409.983z"/>
		<path fill="#FFFFFF" d="M186.244,401.329c0-1.039,0.795-1.865,1.835-1.865s1.865,0.826,1.865,1.865v1.651
			c0.856-2.019,2.446-3.547,4.067-3.547c1.162,0,1.835,0.765,1.835,1.835c0,0.979-0.642,1.62-1.468,1.773
			c-2.63,0.458-4.434,2.477-4.434,6.299v4.771c0,1.009-0.826,1.835-1.865,1.835c-1.009,0-1.835-0.796-1.835-1.835V401.329z"/>
		<path fill="#FFFFFF" d="M199.637,411.328v-8.5h-0.611c-0.887,0-1.59-0.704-1.59-1.591s0.704-1.59,1.59-1.59h0.611v-2.752
			c0-1.009,0.826-1.835,1.865-1.835c1.009,0,1.835,0.826,1.835,1.835v2.752h2.905c0.887,0,1.621,0.703,1.621,1.59
			s-0.734,1.591-1.621,1.591h-2.905v7.919c0,1.438,0.734,2.019,1.987,2.019c0.428,0,0.795-0.092,0.917-0.092
			c0.826,0,1.56,0.673,1.56,1.529c0,0.673-0.458,1.223-0.979,1.437c-0.795,0.275-1.56,0.429-2.538,0.429
			C201.563,416.068,199.637,414.876,199.637,411.328z"/>
		<path fill="#FFFFFF" d="M220.825,395.152c0-1.009,0.795-1.835,1.834-1.835c1.04,0,1.866,0.826,1.866,1.835v18.959
			c0,1.039-0.826,1.835-1.866,1.835c-1.009,0-1.834-0.796-1.834-1.835V395.152z"/>
		<path fill="#FFFFFF" d="M236.756,416.16c-4.679,0-8.287-3.395-8.287-8.379v-0.061c0-4.618,3.272-8.409,7.89-8.409
			c5.137,0,7.675,4.22,7.675,7.95c0,1.039-0.795,1.773-1.743,1.773h-10.122c0.397,2.63,2.263,4.098,4.648,4.098
			c1.56,0,2.783-0.551,3.822-1.407c0.275-0.214,0.52-0.336,0.948-0.336c0.826,0,1.468,0.643,1.468,1.498
			c0,0.459-0.214,0.856-0.489,1.132C241.098,415.334,239.263,416.16,236.756,416.16z M240.425,406.589
			c-0.245-2.385-1.651-4.251-4.098-4.251c-2.263,0-3.853,1.743-4.189,4.251H240.425z"/>
		<path fill="#FFFFFF" d="M246.753,411.145v-0.061c0-3.486,2.721-5.198,6.666-5.198c1.804,0,3.088,0.275,4.342,0.673v-0.397
			c0-2.294-1.407-3.517-4.006-3.517c-1.407,0-2.569,0.244-3.578,0.642c-0.214,0.062-0.398,0.092-0.581,0.092
			c-0.856,0-1.56-0.673-1.56-1.528c0-0.673,0.458-1.254,1.009-1.469c1.529-0.58,3.088-0.947,5.198-0.947
			c2.416,0,4.22,0.642,5.351,1.804c1.193,1.162,1.743,2.875,1.743,4.984v7.95c0,1.01-0.795,1.774-1.804,1.774
			c-1.07,0-1.804-0.734-1.804-1.56v-0.612c-1.101,1.315-2.783,2.354-5.259,2.354C249.444,416.129,246.753,414.387,246.753,411.145z
			 M257.823,409.983v-1.102c-0.948-0.366-2.202-0.642-3.669-0.642c-2.385,0-3.792,1.009-3.792,2.69v0.062
			c0,1.56,1.376,2.446,3.15,2.446C255.958,413.438,257.823,412.032,257.823,409.983z"/>
		<path fill="#FFFFFF" d="M265.771,401.329c0-1.039,0.795-1.865,1.834-1.865s1.865,0.826,1.865,1.865v1.651
			c0.856-2.019,2.446-3.547,4.067-3.547c1.162,0,1.835,0.765,1.835,1.835c0,0.979-0.642,1.62-1.468,1.773
			c-2.63,0.458-4.434,2.477-4.434,6.299v4.771c0,1.009-0.826,1.835-1.865,1.835c-1.009,0-1.834-0.796-1.834-1.835V401.329z"/>
		<path fill="#FFFFFF" d="M278.399,401.329c0-1.039,0.795-1.865,1.834-1.865s1.865,0.826,1.865,1.865v0.795
			c1.04-1.498,2.538-2.812,5.045-2.812c3.639,0,5.749,2.446,5.749,6.177v8.623c0,1.039-0.795,1.835-1.835,1.835
			c-1.04,0-1.865-0.796-1.865-1.835v-7.492c0-2.507-1.254-3.944-3.455-3.944c-2.141,0-3.639,1.498-3.639,4.006v7.431
			c0,1.039-0.826,1.835-1.865,1.835c-1.009,0-1.834-0.796-1.834-1.835V401.329z"/>
		<path fill="#FFFFFF" d="M297.295,395.306c0-1.102,0.917-1.805,2.11-1.805c1.193,0,2.11,0.703,2.11,1.805v0.183
			c0,1.102-0.917,1.835-2.11,1.835c-1.192,0-2.11-0.733-2.11-1.835V395.306z M297.57,401.329c0-1.039,0.795-1.865,1.834-1.865
			c1.04,0,1.866,0.826,1.866,1.865v12.782c0,1.039-0.826,1.835-1.866,1.835c-1.009,0-1.834-0.796-1.834-1.835V401.329z"/>
		<path fill="#FFFFFF" d="M306.101,401.329c0-1.039,0.795-1.865,1.835-1.865c1.039,0,1.865,0.826,1.865,1.865v0.795
			c1.039-1.498,2.537-2.812,5.045-2.812c3.639,0,5.749,2.446,5.749,6.177v8.623c0,1.039-0.795,1.835-1.835,1.835
			c-1.039,0-1.865-0.796-1.865-1.835v-7.492c0-2.507-1.254-3.944-3.455-3.944c-2.141,0-3.639,1.498-3.639,4.006v7.431
			c0,1.039-0.826,1.835-1.865,1.835c-1.01,0-1.835-0.796-1.835-1.835V401.329z"/>
		<path fill="#FFFFFF" d="M326.005,419.31c-0.642-0.245-1.039-0.765-1.039-1.468c0-0.826,0.703-1.529,1.56-1.529
			c0.275,0,0.489,0.062,0.673,0.153c1.468,0.825,3.088,1.284,4.953,1.284c3.303,0,5.106-1.713,5.106-4.954v-1.253
			c-1.345,1.742-3.027,2.966-5.688,2.966c-3.791,0-7.339-2.813-7.339-7.553v-0.062c0-4.771,3.578-7.583,7.339-7.583
			c2.722,0,4.403,1.253,5.657,2.752v-0.765c0-1.009,0.826-1.835,1.835-1.835c1.039,0,1.865,0.826,1.865,1.865v11.161
			c0,2.722-0.703,4.74-2.049,6.085c-1.468,1.468-3.73,2.172-6.636,2.172C329.98,420.747,327.962,420.258,326.005,419.31z
			 M337.289,406.925v-0.061c0-2.63-2.171-4.435-4.74-4.435c-2.568,0-4.587,1.774-4.587,4.435v0.061c0,2.63,2.049,4.435,4.587,4.435
			C335.118,411.359,337.289,409.555,337.289,406.925z"/>
		<path fill="#FFFFFF" d="M355.572,402.828h-0.642c-0.856,0-1.56-0.673-1.56-1.529s0.703-1.56,1.56-1.56h0.642v-1.192
			c0-1.773,0.459-3.119,1.315-3.976c0.855-0.856,2.049-1.284,3.639-1.284c0.733,0,1.346,0.062,1.865,0.153
			c0.673,0.091,1.284,0.703,1.284,1.528c0,0.856-0.703,1.56-1.56,1.529c-0.214-0.031-0.52-0.062-0.765-0.062
			c-1.406,0-2.141,0.765-2.141,2.446v0.887h2.875c0.887,0,1.56,0.673,1.56,1.529s-0.704,1.529-1.56,1.529h-2.813v11.283
			c0,1.009-0.825,1.835-1.865,1.835c-1.009,0-1.835-0.826-1.835-1.835V402.828z"/>
		<path fill="#FFFFFF" d="M365.051,407.812v-0.061c0-4.617,3.669-8.439,8.623-8.439c4.953,0,8.593,3.761,8.593,8.378v0.062
			c0,4.587-3.67,8.409-8.654,8.409C368.689,416.16,365.051,412.398,365.051,407.812z M378.566,407.812v-0.061
			c0-2.844-2.049-5.198-4.954-5.198c-2.966,0-4.862,2.323-4.862,5.137v0.062c0,2.813,2.049,5.168,4.924,5.168
			C376.67,412.919,378.566,410.595,378.566,407.812z"/>
		<path fill="#FFFFFF" d="M386.026,401.329c0-1.039,0.795-1.865,1.835-1.865c1.039,0,1.865,0.826,1.865,1.865v1.651
			c0.855-2.019,2.446-3.547,4.066-3.547c1.162,0,1.835,0.765,1.835,1.835c0,0.979-0.643,1.62-1.468,1.773
			c-2.63,0.458-4.434,2.477-4.434,6.299v4.771c0,1.009-0.826,1.835-1.865,1.835c-1.01,0-1.835-0.796-1.835-1.835V401.329z"/>
		<path fill="#FFFFFF" d="M408.652,402.828h-0.642c-0.856,0-1.56-0.673-1.56-1.529s0.703-1.56,1.56-1.56h0.642v-1.192
			c0-1.773,0.459-3.119,1.315-3.976c0.855-0.856,2.049-1.284,3.639-1.284c0.733,0,1.346,0.062,1.865,0.153
			c0.673,0.091,1.284,0.703,1.284,1.528c0,0.856-0.703,1.56-1.56,1.529c-0.214-0.031-0.52-0.062-0.765-0.062
			c-1.406,0-2.141,0.765-2.141,2.446v0.887h2.875c0.887,0,1.56,0.673,1.56,1.529s-0.704,1.529-1.56,1.529h-2.813v11.283
			c0,1.009-0.825,1.835-1.865,1.835c-1.009,0-1.835-0.826-1.835-1.835V402.828z"/>
		<path fill="#FFFFFF" d="M419.323,401.329c0-1.039,0.795-1.865,1.835-1.865c1.039,0,1.865,0.826,1.865,1.865v1.651
			c0.855-2.019,2.446-3.547,4.066-3.547c1.162,0,1.835,0.765,1.835,1.835c0,0.979-0.643,1.62-1.468,1.773
			c-2.63,0.458-4.434,2.477-4.434,6.299v4.771c0,1.009-0.826,1.835-1.865,1.835c-1.01,0-1.835-0.796-1.835-1.835V401.329z"/>
		<path fill="#FFFFFF" d="M438.801,416.16c-4.678,0-8.286-3.395-8.286-8.379v-0.061c0-4.618,3.271-8.409,7.889-8.409
			c5.138,0,7.676,4.22,7.676,7.95c0,1.039-0.795,1.773-1.743,1.773h-10.121c0.397,2.63,2.263,4.098,4.647,4.098
			c1.56,0,2.782-0.551,3.822-1.407c0.275-0.214,0.52-0.336,0.948-0.336c0.825,0,1.468,0.643,1.468,1.498
			c0,0.459-0.214,0.856-0.489,1.132C443.144,415.334,441.309,416.16,438.801,416.16z M442.471,406.589
			c-0.245-2.385-1.651-4.251-4.098-4.251c-2.263,0-3.853,1.743-4.189,4.251H442.471z"/>
		<path fill="#FFFFFF" d="M457.269,416.16c-4.678,0-8.286-3.395-8.286-8.379v-0.061c0-4.618,3.271-8.409,7.889-8.409
			c5.138,0,7.676,4.22,7.676,7.95c0,1.039-0.795,1.773-1.743,1.773h-10.122c0.398,2.63,2.264,4.098,4.648,4.098
			c1.56,0,2.782-0.551,3.822-1.407c0.275-0.214,0.52-0.336,0.948-0.336c0.825,0,1.468,0.643,1.468,1.498
			c0,0.459-0.214,0.856-0.489,1.132C461.611,415.334,459.776,416.16,457.269,416.16z M460.938,406.589
			c-0.245-2.385-1.651-4.251-4.098-4.251c-2.263,0-3.853,1.743-4.189,4.251H460.938z"/>
	</g>
</g>
<g>
	<path fill="#5AB772" d="M310.082,231.253c0,1.222-0.991,2.212-2.212,2.212H122.03c-1.222,0-2.212-0.991-2.212-2.212V73.622
		c0-1.222,0.991-2.212,2.212-2.212h185.839c1.222,0,2.212,0.991,2.212,2.212V231.253z"/>
	<g>
		<defs>
			<path id="SVGID_1_" d="M310.082,227.471c0,1.222-0.991,2.212-2.212,2.212H122.03c-1.222,0-2.212-0.991-2.212-2.212V69.84
				c0-1.222,0.991-2.212,2.212-2.212h185.839c1.222,0,2.212,0.991,2.212,2.212V227.471z"/>
		</defs>
		<clipPath id="SVGID_2_">
			<use xlink:href="#SVGID_1_"  overflow="visible"/>
		</clipPath>
		<g clip-path="url(#SVGID_2_)">
			<g>
				<path fill="#FFFFFF" d="M310.245,101.919c0,1.222-0.991,2.212-2.212,2.212H122.194c-1.222,0-2.212-0.991-2.212-2.212V69.84
					c0-1.222,0.991-2.212,2.212-2.212h185.839c1.222,0,2.212,0.991,2.212,2.212V101.919z"/>
			</g>
			<g>
				<rect x="120.535" y="82.008" fill="#F2F2F2" width="189.711" height="147.676"/>
			</g>
			<g>
				<circle fill="#DBDBDB" cx="300.843" cy="89.198" r="2.765"/>
			</g>
			<g>
				<path fill="#FFFFFF" d="M305.268,136.764c0,1.222-0.991,2.212-2.212,2.212h-26.548c-1.222,0-2.212-0.991-2.212-2.212v-39.27
					c0-1.222,0.991-2.212,2.212-2.212h26.548c1.222,0,2.212,0.991,2.212,2.212V136.764z"/>
			</g>
			<g>
				<rect x="119.982" y="82.561" fill="#333333" width="17.699" height="147.123"/>
			</g>
			<g>
				<circle fill="#CCCCCC" cx="128.278" cy="75.371" r="2.212"/>
			</g>
			<g>
				<circle fill="#CCCCCC" cx="137.127" cy="75.371" r="2.212"/>
			</g>
			<g>
				<circle fill="#CCCCCC" cx="145.977" cy="75.371" r="2.212"/>
			</g>
			<g>
				<circle fill="#414245" cx="128.831" cy="91.964" r="4.978"/>
			</g>
			<g>
				<rect x="119.982" y="101.366" fill="#292929" width="17.699" height="17.699"/>
			</g>
			<g>
				<circle fill="#414245" cx="128.831" cy="110.216" r="4.978"/>
			</g>
			<g>
				<circle fill="#414245" cx="128.831" cy="128.468" r="4.978"/>
			</g>
			<g>
				<rect x="274.294" y="102.132" fill="#F2F2F2" width="31.196" height="4"/>
			</g>
			<g>
				<rect x="274.294" y="110.981" fill="#F2F2F2" width="31.196" height="4"/>
			</g>
			<g>
				<rect x="274.294" y="119.831" fill="#F2F2F2" width="31.196" height="4"/>
			</g>
			<g>
				<rect x="274.294" y="128.68" fill="#F2F2F2" width="31.196" height="4"/>
			</g>
			<g>
				<circle fill="#414245" cx="128.831" cy="146.72" r="4.978"/>
			</g>
			<g>
				<circle fill="#414245" cx="128.831" cy="165.525" r="4.978"/>
			</g>
			<g>
				<path fill="#DBDBDB" d="M163.676,91.198h-17.699c-1.104,0-2-0.896-2-2s0.896-2,2-2h17.699c1.104,0,2,0.896,2,2
					S164.78,91.198,163.676,91.198z"/>
			</g>
			<g>
				<path fill="#DBDBDB" d="M293.1,91.198h-3.872c-1.104,0-2-0.896-2-2s0.896-2,2-2h3.872c1.104,0,2,0.896,2,2
					S294.204,91.198,293.1,91.198z"/>
			</g>
			<g>
				<path fill="#E6E6E6" d="M203.499,125.149c0,1.222-0.991,2.212-2.212,2.212h-55.309c-1.222,0-2.212-0.991-2.212-2.212V98.048
					c0-1.222,0.991-2.212,2.212-2.212h55.309c1.222,0,2.212,0.991,2.212,2.212V125.149z"/>
			</g>
			<g>
				<path fill="#E6E6E6" d="M268.764,125.149c0,1.222-0.991,2.212-2.212,2.212h-55.309c-1.222,0-2.212-0.991-2.212-2.212V98.048
					c0-1.222,0.991-2.212,2.212-2.212h55.309c1.222,0,2.212,0.991,2.212,2.212V125.149z"/>
			</g>
			<g>
				<path fill="#FFFFFF" d="M203.499,124.043c0,1.222-0.991,2.212-2.212,2.212h-55.309c-1.222,0-2.212-0.991-2.212-2.212V97.495
					c0-1.222,0.991-2.212,2.212-2.212h55.309c1.222,0,2.212,0.991,2.212,2.212V124.043z"/>
			</g>
			<g>
				<path fill="#39ADD1" d="M203.499,123.767c0,1.222-0.991,2.489-2.212,2.489h-18.252V95.282h18.252
					c1.222,0,2.212,0.714,2.212,1.936V123.767z"/>
			</g>
			<g>
				<path fill="#FFFFFF" d="M268.764,124.043c0,1.222-0.991,2.212-2.212,2.212h-55.309c-1.222,0-2.212-0.991-2.212-2.212V97.495
					c0-1.222,0.991-2.212,2.212-2.212h55.309c1.222,0,2.212,0.991,2.212,2.212V124.043z"/>
			</g>
			<g>
				<path fill="#2C6E9A" d="M268.764,123.767c0,1.222-0.991,2.489-2.212,2.489h-18.252V95.282h18.252
					c1.222,0,2.212,0.714,2.212,1.936V123.767z"/>
			</g>
			<g>
				<path fill="#B3B3B3" d="M170.313,105.025h-20.464c-1.104,0-2-0.896-2-2s0.896-2,2-2h20.464c1.104,0,2,0.896,2,2
					S171.417,105.025,170.313,105.025z"/>
			</g>
			<g>
				<path fill="#EBEBEB" d="M158.145,121.619h-8.296c-1.104,0-2-0.896-2-2s0.896-2,2-2h8.296c1.104,0,2,0.896,2,2
					S159.25,121.619,158.145,121.619z"/>
			</g>
			<g>
				<path fill="#EBEBEB" d="M171.972,121.619h-8.296c-1.104,0-2-0.896-2-2s0.896-2,2-2h8.296c1.104,0,2,0.896,2,2
					S173.077,121.619,171.972,121.619z"/>
			</g>
			<g>
				<path fill="#B3B3B3" d="M235.578,105.025h-20.465c-1.104,0-2-0.896-2-2s0.896-2,2-2h20.465c1.104,0,2,0.896,2,2
					S236.683,105.025,235.578,105.025z"/>
			</g>
			<g>
				<path fill="#EBEBEB" d="M223.41,121.619h-8.296c-1.104,0-2-0.896-2-2s0.896-2,2-2h8.296c1.104,0,2,0.896,2,2
					S224.514,121.619,223.41,121.619z"/>
			</g>
			<g>
				<path fill="#EBEBEB" d="M237.237,121.619h-8.296c-1.104,0-2-0.896-2-2s0.896-2,2-2h8.296c1.104,0,2,0.896,2,2
					S238.342,121.619,237.237,121.619z"/>
			</g>
			<g>
				<path fill="#E6E6E6" d="M203.499,161.653c0,1.222-0.991,2.212-2.212,2.212h-55.309c-1.222,0-2.212-0.991-2.212-2.212v-27.102
					c0-1.222,0.991-2.212,2.212-2.212h55.309c1.222,0,2.212,0.991,2.212,2.212V161.653z"/>
			</g>
			<g>
				<path fill="#E6E6E6" d="M268.764,161.653c0,1.222-0.991,2.212-2.212,2.212h-55.309c-1.222,0-2.212-0.991-2.212-2.212v-27.102
					c0-1.222,0.991-2.212,2.212-2.212h55.309c1.222,0,2.212,0.991,2.212,2.212V161.653z"/>
			</g>
			<g>
				<path fill="#FFFFFF" d="M203.499,160.547c0,1.222-0.991,2.212-2.212,2.212h-55.309c-1.222,0-2.212-0.991-2.212-2.212v-26.548
					c0-1.222,0.991-2.212,2.212-2.212h55.309c1.222,0,2.212,0.991,2.212,2.212V160.547z"/>
			</g>
			<g>
				<path fill="#913B53" d="M203.499,160.271c0,1.222-0.991,2.489-2.212,2.489h-18.252v-30.973h18.252
					c1.222,0,2.212,0.714,2.212,1.936V160.271z"/>
			</g>
			<g>
				<path fill="#FFFFFF" d="M268.764,160.547c0,1.222-0.991,2.212-2.212,2.212h-55.309c-1.222,0-2.212-0.991-2.212-2.212v-26.548
					c0-1.222,0.991-2.212,2.212-2.212h55.309c1.222,0,2.212,0.991,2.212,2.212V160.547z"/>
			</g>
			<g>
				<path fill="#E15258" d="M268.764,160.271c0,1.222-0.991,2.489-2.212,2.489h-18.252v-30.973h18.252
					c1.222,0,2.212,0.714,2.212,1.936V160.271z"/>
			</g>
			<g>
				<path fill="#B3B3B3" d="M170.313,142.083h-20.464c-1.104,0-2-0.896-2-2s0.896-2,2-2h20.464c1.104,0,2,0.896,2,2
					S171.417,142.083,170.313,142.083z"/>
			</g>
			<g>
				<path fill="#EBEBEB" d="M158.145,158.123h-8.296c-1.104,0-2-0.896-2-2s0.896-2,2-2h8.296c1.104,0,2,0.896,2,2
					S159.25,158.123,158.145,158.123z"/>
			</g>
			<g>
				<path fill="#EBEBEB" d="M171.972,158.123h-8.296c-1.104,0-2-0.896-2-2s0.896-2,2-2h8.296c1.104,0,2,0.896,2,2
					S173.077,158.123,171.972,158.123z"/>
			</g>
			<g>
				<path fill="#B3B3B3" d="M235.578,141.53h-20.465c-1.104,0-2-0.896-2-2s0.896-2,2-2h20.465c1.104,0,2,0.896,2,2
					S236.683,141.53,235.578,141.53z"/>
			</g>
			<g>
				<path fill="#EBEBEB" d="M223.41,158.123h-8.296c-1.104,0-2-0.896-2-2s0.896-2,2-2h8.296c1.104,0,2,0.896,2,2
					S224.514,158.123,223.41,158.123z"/>
			</g>
			<g>
				<path fill="#EBEBEB" d="M237.237,158.123h-8.296c-1.104,0-2-0.896-2-2s0.896-2,2-2h8.296c1.104,0,2,0.896,2,2
					S238.342,158.123,237.237,158.123z"/>
			</g>
			<g>
				<path fill="#E6E6E6" d="M203.499,198.158c0,1.222-0.991,2.212-2.212,2.212h-55.309c-1.222,0-2.212-0.991-2.212-2.212v-27.102
					c0-1.222,0.991-2.212,2.212-2.212h55.309c1.222,0,2.212,0.991,2.212,2.212V198.158z"/>
			</g>
			<g>
				<path fill="#E6E6E6" d="M268.764,198.158c0,1.222-0.991,2.212-2.212,2.212h-55.309c-1.222,0-2.212-0.991-2.212-2.212v-27.102
					c0-1.222,0.991-2.212,2.212-2.212h55.309c1.222,0,2.212,0.991,2.212,2.212V198.158z"/>
			</g>
			<g>
				<path fill="#FFFFFF" d="M203.499,197.051c0,1.222-0.991,2.212-2.212,2.212h-55.309c-1.222,0-2.212-0.991-2.212-2.212v-26.548
					c0-1.222,0.991-2.212,2.212-2.212h55.309c1.222,0,2.212,0.991,2.212,2.212V197.051z"/>
			</g>
			<g>
				<path fill="#F9845B" d="M203.499,196.775c0,1.222-0.991,2.489-2.212,2.489h-18.252v-30.973h18.252
					c1.222,0,2.212,0.714,2.212,1.936V196.775z"/>
			</g>
			<g>
				<path fill="#FFFFFF" d="M268.764,197.051c0,1.222-0.991,2.212-2.212,2.212h-55.309c-1.222,0-2.212-0.991-2.212-2.212v-26.548
					c0-1.222,0.991-2.212,2.212-2.212h55.309c1.222,0,2.212,0.991,2.212,2.212V197.051z"/>
			</g>
			<g>
				<path fill="#9D8AC7" d="M268.764,196.775c0,1.222-0.991,2.489-2.212,2.489h-18.252v-30.973h18.252
					c1.222,0,2.212,0.714,2.212,1.936V196.775z"/>
			</g>
			<g>
				<path fill="#B3B3B3" d="M170.313,178.034h-20.464c-1.104,0-2-0.896-2-2s0.896-2,2-2h20.464c1.104,0,2,0.896,2,2
					S171.417,178.034,170.313,178.034z"/>
			</g>
			<g>
				<path fill="#EBEBEB" d="M158.145,194.626h-8.296c-1.104,0-2-0.896-2-2s0.896-2,2-2h8.296c1.104,0,2,0.896,2,2
					S159.25,194.626,158.145,194.626z"/>
			</g>
			<g>
				<path fill="#EBEBEB" d="M171.972,194.626h-8.296c-1.104,0-2-0.896-2-2s0.896-2,2-2h8.296c1.104,0,2,0.896,2,2
					S173.077,194.626,171.972,194.626z"/>
			</g>
			<g>
				<path fill="#B3B3B3" d="M235.578,178.034h-20.465c-1.104,0-2-0.896-2-2s0.896-2,2-2h20.465c1.104,0,2,0.896,2,2
					S236.683,178.034,235.578,178.034z"/>
			</g>
			<g>
				<path fill="#EBEBEB" d="M223.41,194.626h-8.296c-1.104,0-2-0.896-2-2s0.896-2,2-2h8.296c1.104,0,2,0.896,2,2
					S224.514,194.626,223.41,194.626z"/>
			</g>
			<g>
				<path fill="#EBEBEB" d="M237.237,194.626h-8.296c-1.104,0-2-0.896-2-2s0.896-2,2-2h8.296c1.104,0,2,0.896,2,2
					S238.342,194.626,237.237,194.626z"/>
			</g>
			<g>
				<path fill="#E6E6E6" d="M203.499,234.662c0,1.222-0.991,2.212-2.212,2.212h-55.309c-1.222,0-2.212-0.991-2.212-2.212V207.56
					c0-1.222,0.991-2.212,2.212-2.212h55.309c1.222,0,2.212,0.991,2.212,2.212V234.662z"/>
			</g>
			<g>
				<path fill="#E6E6E6" d="M268.764,234.662c0,1.222-0.991,2.212-2.212,2.212h-55.309c-1.222,0-2.212-0.991-2.212-2.212V207.56
					c0-1.222,0.991-2.212,2.212-2.212h55.309c1.222,0,2.212,0.991,2.212,2.212V234.662z"/>
			</g>
			<g>
				<path fill="#FFFFFF" d="M203.499,233.556c0,1.222-0.991,2.212-2.212,2.212h-55.309c-1.222,0-2.212-0.991-2.212-2.212v-26.548
					c0-1.222,0.991-2.212,2.212-2.212h55.309c1.222,0,2.212,0.991,2.212,2.212V233.556z"/>
			</g>
			<g>
				<path fill="#6E5E8F" d="M203.499,233.279c0,1.222-0.991,2.489-2.212,2.489h-18.252v-30.973h18.252
					c1.222,0,2.212,0.714,2.212,1.936V233.279z"/>
			</g>
			<g>
				<path fill="#FFFFFF" d="M268.764,233.556c0,1.222-0.991,2.212-2.212,2.212h-55.309c-1.222,0-2.212-0.991-2.212-2.212v-26.548
					c0-1.222,0.991-2.212,2.212-2.212h55.309c1.222,0,2.212,0.991,2.212,2.212V233.556z"/>
			</g>
			<g>
				<path fill="#53BBB4" d="M268.764,233.279c0,1.222-0.991,2.489-2.212,2.489h-18.252v-30.973h18.252
					c1.222,0,2.212,0.714,2.212,1.936V233.279z"/>
			</g>
			<g>
				<path fill="#B3B3B3" d="M170.313,214.538h-20.464c-1.104,0-2-0.896-2-2s0.896-2,2-2h20.464c1.104,0,2,0.896,2,2
					S171.417,214.538,170.313,214.538z"/>
			</g>
			<g>
				<path fill="#B3B3B3" d="M235.578,214.538h-20.465c-1.104,0-2-0.896-2-2s0.896-2,2-2h20.465c1.104,0,2,0.896,2,2
					S236.683,214.538,235.578,214.538z"/>
			</g>
		</g>
	</g>
</g>
<g>
	<g>
		<path fill="#5AB772" d="M464.56,125.293v100.609H313.789V125.293H464.56 M473.13,108.275H305.219
			c-4.666,0-8.448,3.782-8.448,8.448v117.749c0,4.666,3.782,8.448,8.448,8.448H473.13c4.666,0,8.448-3.782,8.448-8.448V116.723
			C481.578,112.057,477.796,108.275,473.13,108.275L473.13,108.275z"/>
		<path fill="#F2F2F2" d="M481.578,230.58c0,4.666-3.782,8.448-8.448,8.448H305.219c-4.666,0-8.448-3.782-8.448-8.448V112.831
			c0-4.666,3.783-8.448,8.448-8.448H473.13c4.666,0,8.448,3.782,8.448,8.448V230.58z"/>
		<rect x="311.027" y="119.696" fill="#333333" width="19.537" height="104.02"/>
		<circle fill="#414245" cx="322.116" cy="131.312" r="4.752"/>
		<rect x="313.667" y="140.288" fill="#292929" width="16.897" height="16.897"/>
		<circle fill="#414245" cx="322.116" cy="148.737" r="4.752"/>
		<circle fill="#414245" cx="322.116" cy="166.162" r="4.752"/>
		<circle fill="#414245" cx="322.116" cy="183.586" r="4.752"/>
		<path fill="#FFFFFF" d="M464.56,121.401V222.01H313.789V121.401H464.56 M473.13,104.383H305.219c-4.666,0-8.448,3.782-8.448,8.448
			V230.58c0,4.666,3.782,8.448,8.448,8.448H473.13c4.666,0,8.448-3.782,8.448-8.448V112.831
			C481.578,108.165,477.796,104.383,473.13,104.383L473.13,104.383z"/>
		<circle fill="#F2F2F2" cx="472.869" cy="171.466" r="5.016"/>
		<path fill="#E15258" d="M374.576,179.544c0,0.18-0.131,0.326-0.293,0.326h-38.86c-0.161,0-0.292-0.145-0.292-0.326v-16.474
			c0-0.18,0.131-0.325,0.292-0.325h38.86c0.162,0,0.293,0.145,0.293,0.325V179.544z"/>
		<path fill="#E6E6E6" d="M374.576,188.829c0,0.18-0.131,0.325-0.293,0.325h-38.86c-0.161,0-0.292-0.145-0.292-0.325v-8.698h39.445
			V188.829z"/>
		<path fill="#FFFFFF" d="M374.576,188.31c0,0.179-0.131,0.325-0.293,0.325h-38.86c-0.161,0-0.292-0.146-0.292-0.325v-8.698h39.445
			V188.31z"/>
		<path fill="#E6E6E6" d="M417.345,188.829c0,0.18-0.131,0.325-0.293,0.325h-38.86c-0.161,0-0.292-0.145-0.292-0.325v-8.698h39.445
			V188.829z"/>
		<path fill="#F9845B" d="M417.345,179.544c0,0.18-0.131,0.326-0.293,0.326h-38.86c-0.161,0-0.292-0.145-0.292-0.326v-16.474
			c0-0.18,0.131-0.325,0.292-0.325h38.86c0.162,0,0.293,0.145,0.293,0.325V179.544z"/>
		<path fill="#FFFFFF" d="M417.345,188.31c0,0.179-0.131,0.325-0.293,0.325h-38.86c-0.161,0-0.292-0.146-0.292-0.325v-8.698h39.445
			V188.31z"/>
		<path fill="#39ADD1" d="M374.576,149.961c0,0.179-0.131,0.325-0.293,0.325h-38.86c-0.161,0-0.292-0.146-0.292-0.325v-16.475
			c0-0.179,0.131-0.326,0.292-0.326h38.86c0.162,0,0.293,0.146,0.293,0.326V149.961z"/>
		<path fill="#E6E6E6" d="M374.576,159.245c0,0.18-0.131,0.326-0.293,0.326h-38.86c-0.161,0-0.292-0.145-0.292-0.326v-8.698h39.445
			V159.245z"/>
		<path fill="#FFFFFF" d="M374.576,158.726c0,0.179-0.131,0.326-0.293,0.326h-38.86c-0.161,0-0.292-0.146-0.292-0.326v-8.698h39.445
			V158.726z"/>
		<path fill="#2C6E9A" d="M417.345,149.961c0,0.179-0.131,0.325-0.293,0.325h-38.86c-0.161,0-0.292-0.146-0.292-0.325v-16.475
			c0-0.179,0.131-0.326,0.292-0.326h38.86c0.162,0,0.293,0.146,0.293,0.326V149.961z"/>
		<path fill="#E6E6E6" d="M417.345,159.245c0,0.18-0.131,0.326-0.293,0.326h-38.86c-0.161,0-0.292-0.145-0.292-0.326v-8.698h39.445
			V159.245z"/>
		<path fill="#FFFFFF" d="M417.345,158.726c0,0.179-0.131,0.326-0.293,0.326h-38.86c-0.161,0-0.292-0.146-0.292-0.326v-8.698h39.445
			V158.726z"/>
		<path fill="#913B53" d="M460.115,149.961c0,0.179-0.131,0.325-0.293,0.325h-38.86c-0.161,0-0.292-0.146-0.292-0.325v-16.475
			c0-0.179,0.131-0.326,0.292-0.326h38.86c0.162,0,0.293,0.146,0.293,0.326V149.961z"/>
		<path fill="#E6E6E6" d="M460.115,159.245c0,0.18-0.131,0.326-0.293,0.326h-38.86c-0.161,0-0.292-0.145-0.292-0.326v-8.698h39.445
			V159.245z"/>
		<path fill="#FFFFFF" d="M460.115,158.726c0,0.179-0.131,0.326-0.293,0.326h-38.86c-0.161,0-0.292-0.146-0.292-0.326v-8.698h39.445
			V158.726z"/>
		<path fill="#6E5E8F" d="M374.576,209.127c0,0.179-0.131,0.325-0.293,0.325h-38.86c-0.161,0-0.292-0.146-0.292-0.325v-16.474
			c0-0.18,0.131-0.326,0.292-0.326h38.86c0.162,0,0.293,0.146,0.293,0.326V209.127z"/>
		<path fill="#E6E6E6" d="M374.576,218.412c0,0.18-0.131,0.326-0.293,0.326h-38.86c-0.161,0-0.292-0.145-0.292-0.326v-8.698h39.445
			V218.412z"/>
		<path fill="#FFFFFF" d="M374.576,217.892c0,0.18-0.131,0.326-0.293,0.326h-38.86c-0.161,0-0.292-0.145-0.292-0.326v-8.698h39.445
			V217.892z"/>
		<path fill="#53BBB4" d="M417.345,209.127c0,0.179-0.131,0.325-0.293,0.325h-38.86c-0.161,0-0.292-0.146-0.292-0.325v-16.474
			c0-0.18,0.131-0.326,0.292-0.326h38.86c0.162,0,0.293,0.146,0.293,0.326V209.127z"/>
		<path fill="#E6E6E6" d="M417.345,218.412c0,0.18-0.131,0.326-0.293,0.326h-38.86c-0.161,0-0.292-0.145-0.292-0.326v-8.698h39.445
			V218.412z"/>
		<path fill="#FFFFFF" d="M417.345,217.892c0,0.18-0.131,0.326-0.293,0.326h-38.86c-0.161,0-0.292-0.145-0.292-0.326v-8.698h39.445
			V217.892z"/>
		<path fill="#9D8AC7" d="M460.115,179.544c0,0.18-0.131,0.326-0.293,0.326h-38.86c-0.161,0-0.292-0.145-0.292-0.326v-16.474
			c0-0.18,0.131-0.325,0.292-0.325h38.86c0.162,0,0.293,0.145,0.293,0.325V179.544z"/>
		<path fill="#E6E6E6" d="M460.115,188.829c0,0.18-0.131,0.325-0.293,0.325h-38.86c-0.161,0-0.292-0.145-0.292-0.325v-8.698h39.445
			V188.829z"/>
		<path fill="#FFFFFF" d="M460.115,188.31c0,0.179-0.131,0.325-0.293,0.325h-38.86c-0.161,0-0.292-0.146-0.292-0.325v-8.698h39.445
			V188.31z"/>
		<path fill="#E6E6E6" d="M460.115,218.412c0,0.18-0.131,0.326-0.293,0.326h-38.86c-0.161,0-0.292-0.145-0.292-0.326v-8.698h39.445
			V218.412z"/>
		<path fill="#E0AB18" d="M460.115,209.127c0,0.179-0.131,0.325-0.293,0.325h-38.86c-0.161,0-0.292-0.146-0.292-0.325v-16.474
			c0-0.18,0.131-0.326,0.292-0.326h38.86c0.162,0,0.293,0.146,0.293,0.326V209.127z"/>
		<path fill="#FFFFFF" d="M460.115,217.892c0,0.18-0.131,0.326-0.293,0.326h-38.86c-0.161,0-0.292-0.145-0.292-0.326v-8.698h39.445
			V217.892z"/>
		
			<line fill="none" stroke="#DBDBDB" stroke-width="4" stroke-linecap="round" stroke-miterlimit="10" x1="336.372" y1="127.616" x2="353.269" y2="127.616"/>
		
			<line fill="none" stroke="#E6E6E6" stroke-width="4" stroke-linecap="round" stroke-miterlimit="10" x1="350.101" y1="154.545" x2="359.605" y2="154.545"/>
		
			<line fill="none" stroke="#E6E6E6" stroke-width="4" stroke-linecap="round" stroke-miterlimit="10" x1="347.989" y1="184.114" x2="361.717" y2="184.114"/>
		
			<line fill="none" stroke="#E6E6E6" stroke-width="4" stroke-linecap="round" stroke-miterlimit="10" x1="393.927" y1="154.545" x2="401.319" y2="154.545"/>
		
			<line fill="none" stroke="#E6E6E6" stroke-width="4" stroke-linecap="round" stroke-miterlimit="10" x1="390.759" y1="184.114" x2="404.487" y2="184.114"/>
		
			<line fill="none" stroke="#E6E6E6" stroke-width="4" stroke-linecap="round" stroke-miterlimit="10" x1="433" y1="154.545" x2="447.785" y2="154.545"/>
		
			<line fill="none" stroke="#E6E6E6" stroke-width="4" stroke-linecap="round" stroke-miterlimit="10" x1="434.056" y1="184.114" x2="446.729" y2="184.114"/>
		
			<line fill="none" stroke="#E6E6E6" stroke-width="4" stroke-linecap="round" stroke-miterlimit="10" x1="351.685" y1="213.684" x2="358.021" y2="213.684"/>
		
			<line fill="none" stroke="#E6E6E6" stroke-width="4" stroke-linecap="round" stroke-miterlimit="10" x1="394.983" y1="213.684" x2="400.263" y2="213.684"/>
		
			<line fill="none" stroke="#E6E6E6" stroke-width="4" stroke-linecap="round" stroke-miterlimit="10" x1="434.056" y1="213.684" x2="446.729" y2="213.684"/>
	</g>
</g>
</svg>
